<?xml version="1.0" encoding="UTF-8"?>
<svg width="36px" height="30px" viewBox="0 0 36 30" version="1.1" xmlns="http://www.w3.org/2000/svg" xmlns:xlink="http://www.w3.org/1999/xlink">
    <!-- Generator: Sketch 57.1 (83088) - https://sketch.com -->
    <title>Feature Icon / datacenter</title>
    <desc>Created with Sketch.</desc>
    <g id="Product-Features-Icons" stroke="none" stroke-width="1" fill="none" fill-rule="evenodd">
        <g id="虚拟主机" transform="translate(-402.000000, -45.000000)">
            <g id="Feature-Icon-/-datacenter" transform="translate(400.000000, 40.000000)">
                <g id="Icon-Datacenter">
                    <rect id="Bound" x="0" y="0" width="40" height="40"></rect>
                    <path d="M10,5 L38,5 L38,12 C38,13.6568542 36.6568542,15 35,15 L13,15 C11.3431458,15 10,13.6568542 10,12 L10,5 L10,5 Z" id="Rectangle" fill="#3D3E49"></path>
                    <path d="M10,17 L38,17 L38,24 C38,25.6568542 36.6568542,27 35,27 L13,27 C11.3431458,27 10,25.6568542 10,24 L10,17 L10,17 Z" id="Rectangle" fill="#3D3E49"></path>
                    <path d="M2,13 L30,13 L30,20 C30,21.6568542 28.6568542,23 27,23 L5,23 C3.34314575,23 2,21.6568542 2,20 L2,13 L2,13 Z" id="Rectangle" fill="#ADEBB5"></path>
                    <path d="M2,25 L30,25 L30,32 C30,33.6568542 28.6568542,35 27,35 L5,35 C3.34314575,35 2,33.6568542 2,32 L2,25 L2,25 Z" id="Rectangle" fill="#86DBA2"></path>
                    <rect id="Rectangle" fill="#FFFFFF" x="5" y="16" width="2" height="4"></rect>
                    <rect id="Rectangle" fill="#FFFFFF" x="9" y="16" width="2" height="4"></rect>
                    <rect id="Rectangle" fill="#FFFFFF" x="5" y="28" width="2" height="4"></rect>
                    <rect id="Rectangle" fill="#FFFFFF" x="9" y="28" width="2" height="4"></rect>
                </g>
            </g>
        </g>
    </g>
</svg>